<svg width="1600" height="900" viewBox="0 0 1600 900" fill="none" xmlns="http://www.w3.org/2000/svg">
  <g opacity="0.6" stroke="#2bb7a8" stroke-width="1">
    <path d="M78 45L52 90H0L-26 45L0 0H52L78 45Z"/>
    <path d="M182 45L156 90H104L78 45L104 0H156L182 45Z"/>
    <path d="M286 45L260 90H208L182 45L208 0H260L286 45Z"/>
    <path d="M390 45L364 90H312L286 45L312 0H364L390 45Z"/>
    <path d="M494 45L468 90H416L390 45L416 0H468L494 45Z"/>
    <path d="M598 45L572 90H520L494 45L520 0H572L598 45Z"/>
    <path d="M702 45L676 90H624L598 45L624 0H676L702 45Z"/>
    <path d="M806 45L780 90H728L702 45L728 0H780L806 45Z"/>
    <path d="M910 45L884 90H832L806 45L832 0H884L910 45Z"/>
    <path d="M1014 45L988 90H936L910 45L936 0H988L1014 45Z"/>
    <path d="M1118 45L1092 90H1040L1014 45L1040 0H1092L1118 45Z"/>
    <path d="M1222 45L1196 90H1144L1118 45L1144 0H1196L1222 45Z"/>
    <path d="M1326 45L1300 90H1248L1222 45L1248 0H1300L1326 45Z"/>
    <path d="M1430 45L1404 90H1352L1326 45L1352 0H1404L1430 45Z"/>
    <path d="M1534 45L1508 90H1456L1430 45L1456 0H1508L1534 45Z"/>
    <path d="M1638 45L1612 90H1560L1534 45L1560 0H1612L1638 45Z"/>
    <path d="M130 135L104 180H52L26 135L52 90H104L130 135Z"/>
    <path d="M234 135L208 180H156L130 135L156 90H208L234 135Z"/>
    <path d="M338 135L312 180H260L234 135L260 90H312L338 135Z"/>
    <path d="M442 135L416 180H364L338 135L364 90H416L442 135Z"/>
    <path d="M546 135L520 180H468L442 135L468 90H520L546 135Z"/>
    <path d="M650 135L624 180H572L546 135L572 90H624L650 135Z"/>
    <path d="M754 135L728 180H676L650 135L676 90H728L754 135Z"/>
    <path d="M858 135L832 180H780L754 135L780 90H832L858 135Z"/>
    <path d="M962 135L936 180H884L858 135L884 90H936L962 135Z"/>
    <path d="M1066 135L1040 180H988L962 135L988 90H1040L1066 135Z"/>
    <path d="M1170 135L1144 180H1092L1066 135L1092 90H1144L1170 135Z"/>
    <path d="M1274 135L1248 180H1196L1170 135L1196 90H1248L1274 135Z"/>
    <path d="M1378 135L1352 180H1300L1274 135L1300 90H1352L1378 135Z"/>
    <path d="M1482 135L1456 180H1404L1378 135L1404 90H1456L1482 135Z"/>
    <path d="M1586 135L1560 180H1508L1482 135L1508 90H1560L1586 135Z"/>
    <path d="M78 225L52 270H0L-26 225L0 180H52L78 225Z"/>
    <path d="M182 225L156 270H104L78 225L104 180H156L182 225Z"/>
    <path d="M286 225L260 270H208L182 225L208 180H260L286 225Z"/>
    <path d="M390 225L364 270H312L286 225L312 180H364L390 225Z"/>
    <path d="M494 225L468 270H416L390 225L416 180H468L494 225Z"/>
    <path d="M598 225L572 270H520L494 225L520 180H572L598 225Z"/>
    <path d="M702 225L676 270H624L598 225L624 180H676L702 225Z"/>
    <path d="M806 225L780 270H728L702 225L728 180H780L806 225Z"/>
    <path d="M910 225L884 270H832L806 225L832 180H884L910 225Z"/>
    <path d="M1014 225L988 270H936L910 225L936 180H988L1014 225Z"/>
    <path d="M1118 225L1092 270H1040L1014 225L1040 180H1092L1118 225Z"/>
    <path d="M1222 225L1196 270H1144L1118 225L1144 180H1196L1222 225Z"/>
    <path d="M1326 225L1300 270H1248L1222 225L1248 180H1300L1326 225Z"/>
    <path d="M1430 225L1404 270H1352L1326 225L1352 180H1404L1430 225Z"/>
    <path d="M1534 225L1508 270H1456L1430 225L1456 180H1508L1534 225Z"/>
    <path d="M1638 225L1612 270H1560L1534 225L1560 180H1612L1638 225Z"/>
  </g>
  <g opacity="0.15" stroke="#7fe3d9" stroke-width="2">
    <path d="M390 45L416 0H468"/>
    <path d="M494 45L520 90H572"/>
    <path d="M858 135L884 90H936"/>
    <path d="M962 135L988 180H1040"/>
    <path d="M286 225L312 180H364"/>
    <path d="M1118 225L1144 180H1196"/>
    <path d="M1326 45L1352 0H1404"/>
    <path d="M1482 135L1508 90H1560"/>
  </g>
</svg>

